# WaveFront *.obj file (generated by Autodesk ATF)

mtllib spotify display.mtl

g Body1

v 4.644095 4.700000 0.300000
v 4.644095 0.300000 0.300000
v 1.835585 0.300000 4.700000
v 1.835585 4.700000 4.700000
v 0.000000 4.700000 0.300000
v 0.000000 0.300000 0.300000
v 0.000000 0.300000 4.700000
v 0.000000 4.700000 4.700000
v 0.000000 0.000000 0.000000
v 0.000000 5.000000 0.000000
v 5.000000 5.000000 0.000000
v 5.000000 0.000000 0.000000
v 0.000000 0.000000 5.000000
v 0.000000 5.000000 5.000000
v 5.000000 0.000000 0.300000
v 2.000000 0.000000 5.000000
v 5.000000 5.000000 0.300000
v 2.000000 5.000000 5.000000
vt -3.008028 -2.200000 0.000000
vt 2.211908 -2.200000 0.000000
vt -3.008028 2.200000 0.000000
vt 2.211908 2.200000 0.000000
vt 2.144095 2.200000 0.000000
vt -2.500000 2.200000 0.000000
vt 2.144095 -2.200000 0.000000
vt -2.500000 -2.200000 0.000000
vt -4.644095 0.300000 0.000000
vt -0.000000 0.300000 0.000000
vt -1.835585 4.700000 0.000000
vt -0.000000 4.700000 0.000000
vt -0.355905 0.300000 0.000000
vt -3.164415 4.700000 0.000000
vt -5.000000 0.300000 0.000000
vt -5.000000 4.700000 0.000000
vt 0.664415 -2.200000 0.000000
vt 2.500000 -2.200000 0.000000
vt 0.664415 2.200000 0.000000
vt 2.500000 2.200000 0.000000
vt 2.500000 2.500000 0.000000
vt -2.500000 2.500000 0.000000
vt 2.500000 -2.500000 0.000000
vt -2.500000 -2.500000 0.000000
vt 4.700000 4.700000 0.000000
vt 4.700000 0.300000 0.000000
vt 5.000000 0.000000 0.000000
vt 0.300000 0.300000 0.000000
vt 0.000000 0.000000 0.000000
vt 0.300000 4.700000 0.000000
vt 0.000000 5.000000 0.000000
vt 5.000000 5.000000 0.000000
vt 5.000000 0.000000 0.000000
vt 5.000000 0.300000 0.000000
vt 0.000000 0.000000 0.000000
vt 2.000000 5.000000 0.000000
vt 0.000000 5.000000 0.000000
vt 5.000000 0.300000 0.000000
vt 0.000000 0.300000 0.000000
vt 5.000000 0.000000 0.000000
vt 0.000000 0.000000 0.000000
vt 5.000000 5.000000 0.000000
vt 3.000000 5.000000 0.000000
vt 5.000000 0.000000 0.000000
vt 0.000000 0.300000 0.000000
vt 0.000000 0.000000 0.000000
vt -0.500000 2.500000 0.000000
vt -2.500000 2.500000 0.000000
vt -0.500000 -2.500000 0.000000
vt -2.500000 -2.500000 0.000000
vt 3.199517 2.500000 0.000000
vt -2.376323 2.500000 0.000000
vt 3.199517 -2.500000 0.000000
vt -2.376323 -2.500000 0.000000
vn -0.842922 0.000000 -0.538035
vn -0.842922 0.000000 -0.538035
vn -0.842922 0.000000 -0.538035
vn -0.842922 0.000000 -0.538035
vn 0.000000 0.000000 1.000000
vn 0.000000 0.000000 1.000000
vn 0.000000 0.000000 1.000000
vn 0.000000 0.000000 1.000000
vn -0.000000 1.000000 -0.000000
vn -0.000000 1.000000 -0.000000
vn -0.000000 1.000000 -0.000000
vn -0.000000 1.000000 -0.000000
vn -0.000000 -1.000000 0.000000
vn -0.000000 -1.000000 0.000000
vn -0.000000 -1.000000 0.000000
vn -0.000000 -1.000000 0.000000
vn -0.000000 -0.000000 -1.000000
vn -0.000000 -0.000000 -1.000000
vn -0.000000 -0.000000 -1.000000
vn -0.000000 -0.000000 -1.000000
vn -0.000000 -0.000000 -1.000000
vn -0.000000 -0.000000 -1.000000
vn -0.000000 -0.000000 -1.000000
vn -0.000000 -0.000000 -1.000000
vn -1.000000 0.000000 0.000000
vn -1.000000 0.000000 0.000000
vn -1.000000 0.000000 0.000000
vn -1.000000 0.000000 0.000000
vn -1.000000 0.000000 0.000000
vn -1.000000 0.000000 0.000000
vn -1.000000 0.000000 0.000000
vn -1.000000 0.000000 0.000000
vn 0.000000 -1.000000 0.000000
vn 0.000000 -1.000000 0.000000
vn 0.000000 -1.000000 0.000000
vn 0.000000 -1.000000 0.000000
vn 0.000000 -1.000000 0.000000
vn 1.000000 0.000000 0.000000
vn 1.000000 0.000000 0.000000
vn 1.000000 0.000000 0.000000
vn 1.000000 0.000000 0.000000
vn 0.000000 1.000000 -0.000000
vn 0.000000 1.000000 -0.000000
vn 0.000000 1.000000 -0.000000
vn 0.000000 1.000000 -0.000000
vn 0.000000 1.000000 -0.000000
vn 0.000000 0.000000 1.000000
vn 0.000000 0.000000 1.000000
vn 0.000000 0.000000 1.000000
vn 0.000000 0.000000 1.000000
vn 0.842922 -0.000000 0.538035
vn 0.842922 -0.000000 0.538035
vn 0.842922 -0.000000 0.538035
vn 0.842922 -0.000000 0.538035
usemtl Steel_-_Satin
f 2/1/1 3/2/2 1/3/3
f 1/3/3 3/2/2 4/4/4
f 1/5/5 5/6/6 2/7/7
f 2/7/7 5/6/6 6/8/8
f 2/9/9 6/10/10 3/11/11
f 3/11/11 6/10/10 7/12/12
f 1/13/13 4/14/14 5/15/15
f 5/15/15 4/14/14 8/16/16
f 3/17/17 7/18/18 4/19/19
f 4/19/19 7/18/18 8/20/20
f 10/21/21 11/22/22 9/23/23
f 9/23/23 11/22/22 12/24/24
f 7/25/25 6/26/26 9/27/27
f 9/27/27 6/26/26 5/28/28
f 9/27/27 5/28/28 10/29/29
f 10/29/29 5/28/28 8/30/30
f 10/29/29 8/30/30 14/31/31
f 14/31/31 8/30/30 7/25/25
f 14/31/31 7/25/25 13/32/32
f 13/32/32 7/25/25 9/27/27
f 12/33/33 15/34/34 9/35/35
f 9/35/35 15/34/34 16/36/36
f 9/35/35 16/36/36 13/37/37
f 17/38/38 15/39/39 11/40/40
f 11/40/40 15/39/39 12/41/41
f 14/42/42 18/43/43 10/44/44
f 10/44/44 18/43/43 17/45/45
f 10/44/44 17/45/45 11/46/46
f 18/47/47 14/48/48 16/49/49
f 16/49/49 14/48/48 13/50/50
f 17/51/51 18/52/52 15/53/53
f 15/53/53 18/52/52 16/54/54
# 18 vertices
# 54 texture params
# 54 normals
# 32 facets

# 1 groups
